<svg width="22" height="22" viewBox="0 0 22 22" fill="none" xmlns="http://www.w3.org/2000/svg">
<path d="M11 7V1M11 7H3.577C3.27205 7.00004 2.97114 7.06981 2.6973 7.20399C2.42345 7.33816 2.18391 7.53318 1.99699 7.77414C1.81008 8.01509 1.68074 8.29559 1.61886 8.5942C1.55699 8.89281 1.56422 9.20161 1.64 9.497L3.691 17.497C3.80139 17.9273 4.05189 18.3086 4.40298 18.5807C4.75407 18.8529 5.18578 19.0004 5.63 19H16.37C16.8139 18.9999 17.2451 18.8522 17.5958 18.5801C17.9465 18.308 18.1967 17.927 18.307 17.497L20.359 9.497C20.4348 9.20161 20.442 8.89281 20.3801 8.5942C20.3183 8.29559 20.1889 8.01509 20.002 7.77414C19.8151 7.53318 19.5756 7.33816 19.3017 7.20399C19.0279 7.06981 18.727 7.00004 18.422 7H11Z" stroke="black" stroke-width="2" stroke-linecap="round" stroke-linejoin="round"/>
</svg>
