<svg width="27" height="27" viewBox="0 0 27 27" fill="none" xmlns="http://www.w3.org/2000/svg">
<path fill-rule="evenodd" clip-rule="evenodd" d="M11.4559 24.5811V14.6046H8.09998V10.7166H11.4559V7.8546C11.3884 7.17522 11.47 6.4893 11.695 5.84472C11.9201 5.20015 12.2831 4.61246 12.7587 4.12268C13.2343 3.6329 13.8111 3.25284 14.4488 3.00904C15.0865 2.76523 15.7698 2.66355 16.4509 2.7111C17.4533 2.70518 18.4552 2.75928 19.4512 2.8731V6.3426H17.3925C17.1311 6.28715 16.86 6.29723 16.6035 6.37193C16.3469 6.44663 16.1128 6.58364 15.922 6.77074C15.7312 6.95784 15.5897 7.18924 15.51 7.4443C15.4303 7.69936 15.415 7.97017 15.4654 8.2326V10.7166H19.3162L18.8134 14.6046H15.4721V24.5811H11.4559Z" fill="white"/>
</svg>
