<svg width="69" height="69" viewBox="0 0 69 69" fill="none" xmlns="http://www.w3.org/2000/svg">
<path d="M4.74452 45.4564C7.70041 53.2187 13.633 59.5192 21.1422 62.9634C21.1827 62.9869 21.2231 63.006 21.2686 63.0205C25.2331 64.8177 29.6275 65.8271 34.256 65.8271C38.111 65.8271 41.8054 65.1299 45.2235 63.8595C45.3095 63.8451 45.3894 63.8133 45.4651 63.764C53.1915 60.8189 59.4693 54.9251 62.9213 47.4628C62.988 47.3814 63.0301 47.2845 63.0508 47.177C64.8289 43.23 65.8271 38.859 65.8271 34.2566C65.8271 16.8483 51.6644 2.68555 34.256 2.68555C30.3614 2.68555 26.6315 3.39911 23.1839 4.69448C23.1776 4.69685 23.1716 4.69906 23.1655 4.70174C15.3562 7.642 9.01519 13.5924 5.55372 21.1319C5.53226 21.1694 5.51427 21.207 5.5007 21.2491C3.69769 25.2187 2.68494 29.6204 2.68494 34.2566C2.68494 38.1236 3.38714 41.8291 4.66531 45.2561C4.67983 45.3272 4.70602 45.3928 4.74452 45.4564ZM20.8147 61.3769C14.1086 58.0397 8.81163 52.2895 6.05962 45.2685L20.8147 30.4982V61.3769ZM34.256 64.5344C29.9364 64.5344 25.8289 63.6189 22.1074 61.9819V41.1124L43.9169 62.9447C40.8806 63.9701 37.6339 64.5344 34.256 64.5344ZM45.2566 62.457L30.5206 47.7055H61.3728C58.0331 54.4113 52.2804 59.7075 45.2566 62.457ZM64.5344 34.2566C64.5344 38.5791 63.6176 42.6894 61.9784 46.4128H41.1263L62.9388 24.5779C63.9679 27.6193 64.5344 30.8722 64.5344 34.2566ZM47.6967 7.13547C54.4012 10.4716 59.6973 16.2196 62.4499 23.2383L47.6967 38.0069V7.13547ZM39.3996 46.3124C39.37 46.3421 39.3556 46.3794 39.333 46.4128H29.3548C29.3177 46.4128 29.2857 46.428 29.2503 46.434L22.2078 39.3838C22.1781 39.3542 22.1409 39.3398 22.1074 39.3172V29.3636C22.1074 29.3166 22.0902 29.2751 22.0806 29.2309L29.1118 22.1926C29.1415 22.1629 29.1558 22.1257 29.1784 22.0923H39.156C39.1934 22.0923 39.2257 22.0771 39.2614 22.0711L46.3036 29.1206C46.3333 29.1503 46.3705 29.1646 46.404 29.1872V39.1408C46.404 39.1882 46.4212 39.2297 46.4308 39.274L39.3996 46.3124ZM34.256 3.97823C38.5753 3.97823 42.6828 4.89362 46.404 6.53047V27.3921L24.6003 5.566C27.6351 4.54189 30.8801 3.97823 34.256 3.97823ZM23.2603 6.0536L37.9911 20.7996H7.14306C10.4841 14.0956 16.237 8.80151 23.2603 6.0536ZM6.53727 22.0923H27.3852L5.57107 43.9286C4.54333 40.8891 3.97762 37.6386 3.97762 34.2566C3.97762 29.9311 4.89585 25.8179 6.53727 22.0923Z" fill="white"/>
</svg>
