<svg width="27" height="27" viewBox="0 0 27 27" fill="none" xmlns="http://www.w3.org/2000/svg">
<path fill-rule="evenodd" clip-rule="evenodd" d="M13.5 2.7002C10.5671 2.7002 10.1992 2.71257 9.0472 2.76545C7.89745 2.8172 7.1122 3.00057 6.42595 3.2672C5.70548 3.53831 5.05281 3.96331 4.51345 4.51257C3.96382 5.05184 3.53843 5.70451 3.26695 6.42507C3.00033 7.11245 2.81695 7.89882 2.7652 9.04744C2.7112 10.1994 2.69995 10.5662 2.69995 13.5002C2.69995 16.4331 2.71233 16.8009 2.7652 17.9529C2.81695 19.1027 3.00033 19.8879 3.26695 20.5742C3.5381 21.2947 3.9631 21.9473 4.51233 22.4867C5.11308 23.0886 5.71608 23.4576 6.42483 23.7332C7.1122 23.9998 7.89745 24.1832 9.04608 24.2349C10.1992 24.2878 10.5671 24.3002 13.5 24.3002C16.4328 24.3002 16.8007 24.2878 17.9527 24.2349C19.1025 24.1832 19.8877 23.9998 20.574 23.7332C21.2944 23.462 21.9471 23.0371 22.4865 22.4878C23.0361 21.9486 23.4615 21.2959 23.733 20.5753C23.9996 19.8879 24.183 19.1016 24.2347 17.9541C24.2876 16.8009 24.3 16.4331 24.3 13.5002C24.3 10.5673 24.2876 10.1994 24.2347 9.04744C24.1818 7.8977 23.9996 7.11244 23.733 6.4262C23.4618 5.70574 23.0368 5.05307 22.4876 4.5137C21.9483 3.96403 21.2957 3.53864 20.5751 3.2672C19.8877 3.00057 19.1013 2.8172 17.9527 2.76545C16.8007 2.71145 16.434 2.7002 13.5 2.7002ZM13.5 4.64645C16.3833 4.64645 16.7253 4.6577 17.865 4.70944C18.9168 4.7567 19.4883 4.93332 19.8697 5.08069C20.3737 5.27644 20.7337 5.51045 21.1117 5.88845C21.4897 6.26645 21.7237 6.62645 21.9195 7.13045C22.0668 7.51069 22.2423 8.08332 22.2907 9.13632C22.3425 10.2748 22.3537 10.6168 22.3537 13.5002C22.3537 16.3836 22.3425 16.7256 22.2907 17.8652C22.2423 18.9171 22.0668 19.4897 21.9195 19.8699C21.7461 20.3392 21.4697 20.7636 21.1106 21.1119C20.7625 21.4705 20.3385 21.7465 19.8697 21.9197C19.4883 22.0671 18.9168 22.2437 17.8638 22.2909C16.7253 22.3427 16.3833 22.3539 13.4988 22.3539C10.6154 22.3539 10.2746 22.3427 9.13608 22.2909C8.08308 22.2437 7.51045 22.0671 7.1302 21.9197C6.66104 21.7466 6.23664 21.4706 5.8882 21.1119C5.52952 20.7635 5.2535 20.3391 5.08045 19.8699C4.93308 19.4897 4.75645 18.9171 4.7092 17.8641C4.65633 16.7256 4.6462 16.3836 4.6462 13.5002C4.6462 10.6168 4.65745 10.2748 4.7092 9.1352C4.75645 8.08332 4.93308 7.51182 5.08045 7.13045C5.2762 6.62645 5.5102 6.26645 5.8882 5.88845C6.23664 5.52976 6.66104 5.25375 7.1302 5.08069C7.51045 4.93332 8.08308 4.7567 9.13608 4.70944C10.2746 4.6577 10.6166 4.64645 13.5 4.64645ZM13.5 17.1002C12.5452 17.1002 11.6295 16.7209 10.9544 16.0458C10.2792 15.3706 9.89995 14.455 9.89995 13.5002C9.89995 12.5454 10.2792 11.6297 10.9544 10.9546C11.6295 10.2795 12.5452 9.9002 13.5 9.9002C14.4547 9.9002 15.3704 10.2795 16.0455 10.9546C16.7207 11.6297 17.1 12.5454 17.1 13.5002C17.1 14.455 16.7207 15.3706 16.0455 16.0458C15.3704 16.7209 14.4547 17.1002 13.5 17.1002ZM13.5 7.95395C12.7716 7.95395 12.0504 8.0974 11.3775 8.37613C10.7046 8.65485 10.0932 9.06339 9.57816 9.5784C9.06314 10.0934 8.65461 10.7048 8.37588 11.3777C8.09716 12.0506 7.9537 12.7719 7.9537 13.5002C7.9537 14.2285 8.09716 14.9498 8.37588 15.6227C8.65461 16.2956 9.06314 16.907 9.57816 17.422C10.0932 17.937 10.7046 18.3455 11.3775 18.6243C12.0504 18.903 12.7716 19.0464 13.5 19.0464C14.9709 19.0464 16.3816 18.4621 17.4217 17.422C18.4619 16.3819 19.0462 14.9712 19.0462 13.5002C19.0462 12.0292 18.4619 10.6185 17.4217 9.5784C16.3816 8.53828 14.9709 7.95395 13.5 7.95395ZM20.5605 7.73569C20.5605 8.07942 20.4239 8.40906 20.1809 8.65211C19.9378 8.89515 19.6082 9.03169 19.2645 9.03169C18.9207 9.03169 18.5911 8.89515 18.348 8.65211C18.105 8.40906 17.9685 8.07942 17.9685 7.73569C17.9685 7.39197 18.105 7.06233 18.348 6.81928C18.5911 6.57624 18.9207 6.4397 19.2645 6.4397C19.6082 6.4397 19.9378 6.57624 20.1809 6.81928C20.4239 7.06233 20.5605 7.39197 20.5605 7.73569Z" fill="white"/>
</svg>
