<svg width="24" height="24" viewBox="0 0 24 24" fill="none" xmlns="http://www.w3.org/2000/svg">
<g clip-path="url(#clip0_10_4541)">
<path d="M1.66203 15.9234C2.69748 18.6425 4.77568 20.8496 7.40615 22.0561C7.42036 22.0644 7.43451 22.071 7.45043 22.0761C8.83921 22.7057 10.3786 23.0593 12 23.0593C13.3504 23.0593 14.6445 22.8151 15.8419 22.37C15.872 22.365 15.9 22.3538 15.9265 22.3366C18.6331 21.3049 20.8322 19.2403 22.0414 16.6263C22.0648 16.5977 22.0796 16.5638 22.0868 16.5261C22.7097 15.1435 23.0594 13.6123 23.0594 12.0001C23.0594 5.90194 18.0981 0.940704 12 0.940704C10.6357 0.940704 9.32908 1.19067 8.12138 1.64444C8.11917 1.64527 8.11707 1.64604 8.11491 1.64698C5.3793 2.67696 3.15805 4.7614 1.94549 7.40249C1.93797 7.41565 1.93167 7.4288 1.92692 7.44356C1.29532 8.83411 0.940552 10.376 0.940552 12.0001C0.940552 13.3547 1.18653 14.6527 1.63428 15.8533C1.63937 15.8781 1.64854 15.9011 1.66203 15.9234ZM7.29145 21.5004C4.94228 20.3314 3.08674 18.3171 2.12271 15.8576L7.29145 10.6835V21.5004ZM12 22.6065C10.4868 22.6065 9.04794 22.2857 7.74428 21.7123V14.4017L15.3842 22.0496C14.3205 22.4088 13.1832 22.6065 12 22.6065ZM15.8535 21.8787L10.6914 16.7113H21.499C20.3291 19.0603 18.3139 20.9156 15.8535 21.8787ZM22.6065 12.0001C22.6065 13.5143 22.2854 14.9541 21.7112 16.2584H14.4066L22.0476 8.60963C22.4081 9.67504 22.6065 10.8145 22.6065 12.0001ZM16.7082 2.49952C19.0569 3.66819 20.9121 5.68171 21.8763 8.14038L16.7082 13.3138V2.49952ZM13.8018 16.2233C13.7914 16.2337 13.7863 16.2467 13.7784 16.2584H10.283C10.2701 16.2584 10.2588 16.2637 10.2465 16.2658L7.77944 13.7962C7.76905 13.7858 7.756 13.7808 7.74428 13.7728V10.2861C7.74428 10.2696 7.73826 10.2551 7.73488 10.2396L10.1979 7.77406C10.2083 7.76367 10.2133 7.75062 10.2212 7.73891H13.7164C13.7295 7.73891 13.7409 7.7336 13.7533 7.7315L16.2203 10.2009C16.2306 10.2113 16.2437 10.2164 16.2554 10.2243V13.711C16.2554 13.7276 16.2614 13.7422 16.2648 13.7577L13.8018 16.2233ZM12 1.39353C13.513 1.39353 14.9519 1.7142 16.2554 2.28759V9.59544L8.61755 1.94973C9.68064 1.59098 10.8174 1.39353 12 1.39353ZM8.14814 2.12054L13.3084 7.28608H2.50224C3.67262 4.93768 5.68786 3.08313 8.14814 2.12054ZM2.29003 7.73891H9.59308L1.95157 15.3882C1.59155 14.3235 1.39338 13.1848 1.39338 12.0001C1.39338 10.4849 1.71504 9.044 2.29003 7.73891Z" fill="black"/>
</g>
<defs>
<clipPath id="clip0_10_4541">
<rect width="24" height="24" fill="white"/>
</clipPath>
</defs>
</svg>
