<svg width="27" height="27" viewBox="0 0 27 27" fill="none" xmlns="http://www.w3.org/2000/svg">
<path fill-rule="evenodd" clip-rule="evenodd" d="M17.3408 5.58003C19.035 5.55303 19.9362 6.1189 20.7968 6.83665C21.528 6.7804 22.4787 6.40578 23.0378 6.1459L23.5823 5.87365C23.2617 6.6634 22.8285 7.28328 22.1625 7.7524C22.0152 7.85703 21.8678 7.99765 21.6833 8.06403V8.07415C22.6317 8.06515 23.4147 7.67253 24.1583 7.4599V7.47115C23.7514 8.06686 23.2507 8.59268 22.6755 9.02815L21.9927 9.5254C22.0039 10.4445 21.9769 11.3232 21.7902 12.096C20.6978 16.5904 17.8032 19.6414 13.2222 20.9475C11.5774 21.4178 8.91905 21.6113 7.03467 21.1815C6.10092 20.97 5.25605 20.7293 4.46405 20.412C4.03955 20.2439 3.62621 20.0489 3.22655 19.8282L2.8418 19.6144C3.26705 19.6257 3.7643 19.7325 4.24017 19.6628C4.66992 19.5998 5.0918 19.6155 5.48892 19.5357C6.4778 19.3377 7.35642 19.0744 8.11242 18.6694C8.47917 18.4725 9.03492 18.2419 9.29705 17.9584C8.85439 17.959 8.41465 17.8868 7.99542 17.7447C6.58017 17.2868 5.75667 16.4464 5.22117 15.183C5.6498 15.2258 6.88505 15.3282 7.17305 15.1043C6.63305 15.0784 6.11555 14.7915 5.7443 14.5789C4.6058 13.9264 3.67767 12.834 3.68555 11.151L4.1333 11.3457C4.41905 11.4559 4.7093 11.5144 5.05017 11.5797C5.19417 11.6067 5.48217 11.6843 5.64755 11.628H5.62617C5.4068 11.394 5.04792 11.2377 4.82742 10.9857C4.09617 10.1543 3.41217 8.87628 3.8453 7.35303C3.95442 6.96715 4.1288 6.62628 4.31442 6.31128L4.3358 6.3214C4.4213 6.4834 4.6103 6.60265 4.72955 6.7399C5.10305 7.1629 5.56317 7.54315 6.0323 7.87953C7.6298 9.02253 9.06755 9.72453 11.376 10.2454C11.9633 10.377 12.6405 10.4783 13.3403 10.4794C13.1434 9.95515 13.2064 9.1069 13.3617 8.60065C13.7509 7.3249 14.5958 6.40465 15.8367 5.9119C16.1325 5.79378 16.4622 5.7094 16.8075 5.63965L17.3408 5.58115V5.58003Z" fill="white"/>
</svg>
