<svg width="27" height="27" viewBox="0 0 27 27" fill="none" xmlns="http://www.w3.org/2000/svg">
<path fill-rule="evenodd" clip-rule="evenodd" d="M22.9949 5.89828C24.0401 6.17278 24.8624 6.98165 25.1426 8.00878C25.65 9.86953 25.6499 13.753 25.6499 13.753C25.6499 13.753 25.65 17.6365 25.1426 19.4973C25.0008 20.0065 24.7276 20.4695 24.3505 20.8399C23.9734 21.2103 23.5055 21.4751 22.9938 21.6078C21.0993 22.1062 13.4999 22.1062 13.4999 22.1062C13.4999 22.1062 5.9017 22.1062 4.00607 21.6078C3.49443 21.475 3.02664 21.2102 2.64953 20.8398C2.27242 20.4694 1.99924 20.0065 1.85732 19.4973C1.35107 17.6365 1.35107 13.753 1.35107 13.753C1.35107 13.753 1.35107 9.86953 1.85732 8.00878C1.99913 7.49955 2.27228 7.03653 2.64941 6.66612C3.02653 6.29571 3.49438 6.03092 4.00607 5.89828C5.9017 5.3999 13.5011 5.3999 13.5011 5.3999C13.5011 5.3999 21.0993 5.3999 22.9938 5.89828H22.9949ZM17.3654 13.753L11.0159 17.2799V10.2273L17.3677 13.753H17.3654Z" fill="white"/>
</svg>
